/* XPM */
static char *button1l[] = {
/* columns rows colors chars-per-pixel */
"32 36 2 1",
"  c #00008F",
". c None",
/* pixels */
"..............................  ",
".............................   ",
"...........................     ",
".........................       ",
"........................        ",
"......................          ",
"....................            ",
"..................              ",
".................               ",
"...............                 ",
".............                   ",
"...........                     ",
"..........                      ",
"........                        ",
"......                          ",
".....                           ",
"...                             ",
".                               ",
".                               ",
"...                             ",
".....                           ",
".......                         ",
"........                        ",
"..........                      ",
"............                    ",
"..............                  ",
"...............                 ",
".................               ",
"...................             ",
"....................            ",
"......................          ",
"........................        ",
"..........................      ",
"...........................     ",
".............................   ",
"............................... "
};
