/* XPM */
static char *button2r[] = {
/* columns rows colors chars-per-pixel */
"52 36 2 1",
"  c #00008F",
". c None",
/* pixels */
"  ..................  ..............................",
"   .................   .............................",
"     ...............     ...........................",
"       .............       .........................",
"        ............        ........................",
"          ..........          ......................",
"            ........            ....................",
"              ......              ..................",
"               .....               .................",
"                 ...                 ...............",
"                   .                   .............",
"                                         ...........",
"                                          ..........",
"                                            ........",
"                                              ......",
"                                               .....",
"                                                 ...",
"                                                   .",
"                                                   .",
"                                                 ...",
"                                               .....",
"                                             .......",
"                                            ........",
"                                          ..........",
"                                        ............",
"                  ..                  ..............",
"                 ...                 ...............",
"               .....               .................",
"             .......             ...................",
"            ........            ....................",
"          ..........          ......................",
"        ............        ........................",
"      ..............      ..........................",
"     ...............     ...........................",
"   .................   .............................",
" ................... ..............................."
};
