/* XPM */
static char *button3r[] = {
/* columns rows colors chars-per-pixel */
"72 36 2 1",
"  c #00008F",
". c None",
/* pixels */
"  ..................  ..................  ..............................",
"   .................   .................   .............................",
"     ...............     ...............     ...........................",
"       .............       .............       .........................",
"        ............        ............        ........................",
"          ..........          ..........          ......................",
"            ........            ........            ....................",
"              ......              ......              ..................",
"               .....               .....               .................",
"                 ...                 ...                 ...............",
"                   .                   .                   .............",
"                                                             ...........",
"                                                              ..........",
"                                                                ........",
"                                                                  ......",
"                                                                   .....",
"                                                                     ...",
"                                                                       .",
"                                                                       .",
"                                                                     ...",
"                                                                   .....",
"                                                                 .......",
"                                                                ........",
"                                                              ..........",
"                                                            ............",
"                  ..                  ..                  ..............",
"                 ...                 ...                 ...............",
"               .....               .....               .................",
"             .......             .......             ...................",
"            ........            ........            ....................",
"          ..........          ..........          ......................",
"        ............        ............        ........................",
"      ..............      ..............      ..........................",
"     ...............     ...............     ...........................",
"   .................   .................   .............................",
" ................... ................... ..............................."
};
