/* XPM */
static char *go07_pix_data[] = {
/* columns rows colors chars-per-pixel */
"110 110 2 1",
"  c #27A317",
". c None",
/* pixels */
"..............................................................................................................",
".................................................           ..................................................",
"..........................................                         ...........................................",
".......................................                                .......................................",
"....................................                    ..                ....................................",
".................................                       ...                  .................................",
"...............................                         ....                   ...............................",
".............................                          ......                   ..............................",
"............................                           ........                   ............................",
"..........................                             .........                    ..........................",
"........................                              ...........                     ........................",
".......................                               ............                     .......................",
"......................                           ..................                     ......................",
"....................                       .........................                     .....................",
"...................                     .............................                      ...................",
"..................                    ................................                      ..................",
".................                  ....................................                      .................",
"................                 .......................................                      ................",
"...............                 .........................................                      ...............",
"..............                .................     ......................                      ..............",
".............                ..............        ........................                     ..............",
".............               .............          ....................                          .............",
"............               ............            ..............                                 ............",
"...........              ...........              ........                                         ...........",
"..........              ...........               ..                                                ..........",
".........              ...........                                                                  ..........",
".........             ..........                                                                     .........",
"........              .........                                                                      .........",
"........             .........                                                                        ........",
".......             .........                                                                         ........",
".......            .........                                                                           .......",
"......             ........                                                                             ......",
"......            .........                                                                             ......",
".....             ........                                                                               .....",
".....              ......                                                                 ...            .....",
"....                ....                                                                ......           .....",
"....                 ...                                                               .......            ....",
"....                                                                                   ........           ....",
"...                                                                                    ........           ....",
"...                                                                                     .......            ...",
"...                                                                                     ........           ...",
"...                                                                                      .......           ...",
"..                                                                                       .......            ..",
"..                                    .......                     .......                 .......           ..",
"..                                 .............               .............              .......           ..",
"..                                ...............             ...............             .......           ..",
".                                ..................          .................             ......           ..",
".                               .......     .......         .......     .......            .......          ..",
".                              ......         ......       ......         ......           .......          ..",
".                             ......           .....      ......           ......          .......           .",
".                             .....            .....      .....             .....          .......           .",
".                             .....                       .....             .....          .......           .",
".                            .....                       .....               .....          ......           .",
".                            .....                       .....               .....          ......           .",
".                            .....                       .....               .....          ......           .",
".                            .....        ...........    .....               .....          ......           .",
".             ..             .....        ...........    .....               .....          ......           .",
".             ...            .....        ...........    .....               .....         .......           .",
".             ....           .....        ...........    .....               .....         .......           .",
".             .....          ......             .....    .....               .....         .......           .",
".            ......           .....             .....     .....             .....          .......           .",
".            .......          .....            ......     .....             .....          .......           .",
".            ........         ......           ......     ......           ......          ......           ..",
".            .........         ......         .......      ......         ......           ......           ..",
"..          ...........         .......     .........       .......     .......           .......           ..",
"..          ............         ............... ....        .................            .......           ..",
"..          ............          .............. ....         ...............             .......           ..",
"..          .............          ...........   ....          .............       ..    ........           ..",
"..         ...............            ......                      .......          ...   .......           ...",
"...        ................                                                       ..... ........           ...",
"...        .................                                                      .............            ...",
"...        ..................                                                     .............           ....",
"....       ..................                                                    .............            ....",
"....      ....................                                                   .............            ....",
"....      .....................                                                  .............            ....",
".....     .................                                                     .............            .....",
".....     ...............                                                       .............            .....",
".....    .................                                                     ...............          ......",
"......   .....    .........                                                    ................         ......",
".......  .         .........                                                   .................       .......",
".......             ........                                                  ...................      .......",
"........            .........                                                 ....................    ........",
"........             ..........                                              ......................   ........",
".........             ..........                                             .....................   .........",
".........              ..........                                            .................       .........",
"..........              ..........                                          ...............         ..........",
"...........              ...........                                        ...........            ...........",
"...........               ............                                      ........              ............",
"............               .............                                   .....                  ............",
".............               ..............                                 ..                    .............",
"..............                ...............                                                   ..............",
"...............                ....................                                            ...............",
"...............                  ......................                                       ................",
"................                   ....................                                      .................",
".................                    ..................                                     ..................",
"...................                    ................                                    ...................",
"....................                      .............                                   ....................",
".....................                        ..........                                  .....................",
"......................                                .                                .......................",
"........................                                                              ........................",
".........................                                                            .........................",
"...........................                                                        ...........................",
".............................                                                    .............................",
"..............................                                                 ...............................",
"................................                                              ................................",
"..................................                                         ...................................",
"......................................                                  ......................................",
".........................................                            .........................................",
".............................................                    .............................................",
".............................................................................................................."
};
