/* XPM */
static char *ind_stop_pix_data[] = {
/* columns rows colors chars-per-pixel */
"120 80 2 1",
"  c #E11F23",
". c None",
/* pixels */
"........................................................................................................................",
"........................................................................................................................",
"........................................................................................................................",
"........................................................................................................................",
"........................................................................................................................",
"........................................................................................................................",
"........................................................................................................................",
"........................................................................................................................",
"........................................................................................................................",
"........................................................................................................................",
"...............................................                          ...............................................",
"..............................................                            ..............................................",
".............................................                              .............................................",
"............................................                                ............................................",
"...........................................                                  ...........................................",
"..........................................                                    ..........................................",
".........................................                                      .........................................",
"........................................                                        ........................................",
".......................................                                          .......................................",
"......................................                                            ......................................",
".....................................                                              .....................................",
"....................................                                                ....................................",
"...................................                                                  ...................................",
"..................................                                                    ..................................",
".................................                                                      .................................",
"................................                                                        ................................",
"...............................                                                          ...............................",
"..............................                                                            ..............................",
"..............................                                                            ..............................",
"..............................                                                            ..............................",
"..............................                                                            ..............................",
"..............................                                                            ..............................",
"..............................                                                            ..............................",
"..............................                                                            ..............................",
"..............................                                                            ..............................",
"..............................                                                            ..............................",
"..............................                                                            ..............................",
"..............................                                                            ..............................",
"..............................                                                            ..............................",
"..............................                                                            ..............................",
"..............................                                                            ..............................",
"..............................                                                            ..............................",
"..............................                                                            ..............................",
"..............................                                                            ..............................",
"..............................                                                            ..............................",
"..............................                                                            ..............................",
"..............................                                                            ..............................",
"..............................                                                            ..............................",
"..............................                                                            ..............................",
"..............................                                                            ..............................",
"..............................                                                            ..............................",
"..............................                                                            ..............................",
"..............................                                                            ..............................",
"...............................                                                          ...............................",
"................................                                                        ................................",
".................................                                                      .................................",
"..................................                                                    ..................................",
"...................................                                                  ...................................",
"....................................                                                ....................................",
".....................................                                              .....................................",
"......................................                                            ......................................",
".......................................                                          .......................................",
"........................................                                        ........................................",
".........................................                                      .........................................",
"..........................................                                    ..........................................",
"...........................................                                  ...........................................",
"............................................                                ............................................",
".............................................                              .............................................",
"..............................................                            ..............................................",
"...............................................                          ...............................................",
"........................................................................................................................",
"........................................................................................................................",
"........................................................................................................................",
"........................................................................................................................",
"........................................................................................................................",
"........................................................................................................................",
"........................................................................................................................",
"........................................................................................................................",
"........................................................................................................................",
"........................................................................................................................"
};
