/* XPM */
static char *ind_go36_pix_data[] = {
/* columns rows colors chars-per-pixel */
"117 77 2 1",
"  c #27A317",
". c None",
/* pixels */
".....................................................................................................................",
"..                                                                                                                  .",
"..                                                                                                                  .",
"..                                                                                                                  .",
"..                                                                                                                  .",
"..                                                                                                                  .",
"..                                                                                                                  .",
"..                                                                                                                  .",
"..                                                                                                                  .",
"..                                                 ...............                                                  .",
"..                                              .....................                                               .",
"..                                            .........................                                             .",
"..                                          .............................                                           .",
"..                                        .................................                                         .",
"..                                       ...................................                                        .",
"..                                     ......................................                                       .",
"..                                    .......................................                                       .",
"..                                   .......................................                                        .",
"..                                  ....................     ...............                                        .",
"..                                  ................             ..........                                         .",
"..                                 ...............                  ......                                          .",
"..                                ..............                     .....                                          .",
"..                               .............                         ..                                           .",
"..                               ............                                                                       .",
"..                              ............                                                                        .",
"..                              ...........                                                                         .",
"..                             ...........                                                                          .",
"..                             ...........                                                                          .",
"..                            ...........                                                                           .",
"..                            ...........                                                                           .",
"..                            ..........                                                                            .",
"..                            ..........                                                                            .",
"..                           ..........                                                                             .",
"..                           ..........                                                                             .",
"..                           ..........                                                                             .",
"..                           ..........                                                                             .",
"..                           ..........                                        .........                            .",
"..                           .........                                         .........                            .",
"..                           .........                                         .........                            .",
"..                           .........                                         .........                            .",
"..                           .........                                         .........                            .",
"..                                                                            ..........                            .",
"..                                                                            ..........                            .",
"..                                                                            ..........                            .",
"..                                                                            ..........                            .",
"..                                                                           ...........                            .",
"..                                                                           ..........                             .",
"..                                                                          ...........                             .",
"..                                                                          ...........                             .",
"..                                                                         ...........                              .",
"..                                                                         ...........                              .",
"..                                                                        ...........                               .",
"..                                                                       ............                               .",
"..                                                                      ............                                .",
"..                                          ...                        .............                                .",
"..                                         .....                     ..............                                 .",
"..                                         .......                 ...............                                  .",
"..                                        ..........             .................                                  .",
"..                                       ................   .....................                                   .",
"..                                       .......................................                                    .",
"..                                      .......................................                                     .",
"..                                      .....................................                                       .",
"..                                       ...................................                                        .",
"..                                        .................................                                         .",
"..                                          .............................                                           .",
"..                                            .........................                                             .",
"..                                              .....................                                               .",
"..                                                  .............                                                   .",
"..                                                                                                                  .",
"..                                                                                                                  .",
"..                                                                                                                  .",
"..                                                                                                                  .",
"..                                                                                                                  .",
"..                                                                                                                  .",
"..                                                                                                                  .",
".....................................................................................................................",
"....................................................................................................................."
};
