/* XPM */
static char *sw34_pix_data[] = {
/* columns rows colors chars-per-pixel */
"129 129 3 1",
"  c #000000",
". c #FFFFFF",
"X c None",
/* pixels */
"XXXXXXXXXXXXXXXXXXXXXXXXXXXXXXXXXXXXXXXXXXXXXXXXXXXXXXXXXXXXXXXXXXXXXXXXXXXXXXXXXXXXXXXXXXXXXXXXXXXXXXXXXXXXXXXXXXXXXXXXXXXXXXXXX",
"XXXXXXXXXXXXXXXXXXXXXXXXXXXXXXXXXXXXXXXXXXXXXXXXXXXXXXXXXXXXXXXXXXXXXXXXXXXXXXXXXXXXXXXXXXXXXXXXXXXXXXXXXXXXXXXXXXXXXXXXXXXXXXXXX",
"XX                                                                                                                             XX",
"XX                                                                                                                             XX",
"XX                                                                                                                             XX",
"XX                                                                                                                             XX",
"XX                                                                                                                             XX",
"XX     XXXXXXXXXXXXXXXXXXXXXXXXXXXXXXXXXXXXXXXXXXXXXXXXXXXXXXXXXXXXXXXXXXXXXXXXXXXXXXXXXXXXXXXXXXXXXXXXXXXXXXXXXXXXXXXXXXX     XX",
"XX     XXXXXXXXXXXXXXXXXXXXXXXXXXXXXXXXXXXXXXXXXXXXXXXXXXXXXXXXXXXXXXXXXXXXXXXXXXXXXXXXXXXXXXXXXXXXXXXXXXXXXXXXXXXXXXXXXXX     XX",
"XX     XXXXXXXXXXXXXXXXXXXXXXXXXXXXXXXXXXXXXXXXXXXXXXXXXXXXXXXXXXXXXXXXXXXXXXXXXXXXXXXXXXXXXXXXXXXXXXXXXXXXXXXXXXXXXXXXXXX     XX",
"XX     XXXXXXXXXXXXXXXXXXXXXXXXXXXXXXXXXXXXXXXXXXXXXXXXXXXXXXXXXXXXXXXXXXXXXXXXXXXXXXXXXXXXXXXXXXXXXXXXXXXXXXXXXXXXXXXXXXX     XX",
"XX     XXXXXXXXXXXXXXXXXXXXXXXXXXXXXXXXXXXXXXXXXXXXXXXXXXXXXXXXXXXXXXXXXXXXXXXXXXXXXXXXXXXXXXXXXXXX XXXXXXXXXXXXXXXXXXXXXX     XX",
"XX     XXXXXXXXXXXXXXXXXXXXXXXXXXXXXXXXXXXXXXXXXXXXXXXXXX              XXXXXXXXXXXXXXXXXXXXXXXXXXX   XXXXXXXXXXXXXXXXXXXXX     XX",
"XX     XXXXXXXXXXXXXXXXXXXXXXXXXXXXXXXXXXXXXXXXXXXXX                         XXXXXXXXXXXXXXXXXXXX     XXXXXXXXXXXXXXXXXXXX     XX",
"XX     XXXXXXXXXXXXXXXXXXXXXXXXXXXXXXXXXXXXXXXXX                                XXXXXXXXXXXXXXXX       XXXXXXXXXXXXXXXXXXX     XX",
"XX     XXXXXXXXXXXXXXXXXXXXXXXXXXXXXXXXXXXXXX                                       XXXXXXXXXXX         XXXXXXXXXXXXXXXXXX     XX",
"XX     XXXXXXXXXXXXXXXXXXXXXXXXXXXXXXXXXXXX                                           XXXXXXXX           XXXXXXXXXXXXXXXXX     XX",
"XX     XXXXXXXXXXXXXXXXXXXXXXXXXXXXXXXXXX                                               XXXXX             XXXXXXXXXXXXXXXX     XX",
"XX     XXXXXXXXXXXXXXXXXXXXXXXXXXXXXXXX                ...................                XX               XXXXXXXXXXXXXXX     XX",
"XX     XXXXXXXXXXXXXXXXXXXXXXXXXXXXXX                  ..................                                   XXXXXXXXXXXXXX     XX",
"XX     XXXXXXXXXXXXXXXXXXXXXXXXXXXX             ..     ..................      .                             XXXXXXXXXXXXX     XX",
"XX     XXXXXXXXXXXXXXXXXXXXXXXXXXX            ....   .......................   ....                           XXXXXXXXXXXX     XX",
"XX     XXXXXXXXXXXXXXXXXXXXXXXXXX           .........................................                          XXXXXXXXXXX     XX",
"XX     XXXXXXXXXXXXXXXXXXXXXXXX           .............................................                         XXXXXXXXXX     XX",
"XX     XXXXXXXXXXXXXXXXXXXXXXX          .................................................                        XXXXXXXXX     XX",
"XX     XXXXXXXXXXXXXXXXXXXXXX         ....................................................                        XXXXXXXX     XX",
"XX     XXXXXXXXXXXXXXXXXXXXX         .......................................................                       XXXXXXX     XX",
"XX     XXXXXXXXXXXXXXXXXXXX         .........................................................                       XXXXXX     XX",
"XX     XXXXXXXXXXXXXXXXXXX         ...........................................................                       XXXXX     XX",
"XX     XXXXXXXXXXXXXXXXXX        ..............................................................                       XXXX     XX",
"XX     XXXXXXXXXXXXXXXXX          ............................................................                       XXXXX     XX",
"XX     XXXXXXXXXXXXXXXX           ............................................................                      XXXXXX     XX",
"XX     XXXXXXXXXXXXXXXX          ..............................................................                    XXXXXXX     XX",
"XX     XXXXXXXXXXXXXXX          ................................................................                  XXXXXXXX     XX",
"XX     XXXXXXXXXXXXXX        . ..................................................................  .             XXXXXXXXX     XX",
"XX     XXXXXXXXXXXXX        .........................................................................           XXXXXXXXXX     XX",
"XX     XXXXXXXXXXXXX       ...........................................................................         XXXXXXXXXXX     XX",
"XX     XXXXXXXXXXXX       .............................................................................       XXXXXXXXXXXX     XX",
"XX     XXXXXXXXXXXX      ..............................................................................       XXXXXXXXXXXX     XX",
"XX     XXXXXXXXXXX       ...............................................................................       XXXXXXXXXXX     XX",
"XX     XXXXXXXXXXX      .................................................................................      XXXXXXXXXXX     XX",
"XX     XXXXXXXXXX       .................................................................................       XXXXXXXXXX     XX",
"XX     XXXXXXXXX       ...................................................................................      XXXXXXXXXX     XX",
"XX     XXXXXXXXX       ...................................................................................       XXXXXXXXX     XX",
"XX     XXXXXXXX       .....................................................................................      XXXXXXXXX     XX",
"XX     XXXXXXXX      ......................................................................................       XXXXXXXX     XX",
"XX     XXXXXXXX      .......................................................................................      XXXXXXXX     XX",
"XX     XXXXXXXX     ........................................................................................      XXXXXXXX     XX",
"XX     XXXXXXX      ........................................................................................      XXXXXXXX     XX",
"XX     XXXXXXX      .........................................................................................      XXXXXXX     XX",
"XX     XXXXXXX        .....................................................................................        XXXXXXX     XX",
"XX     XXXXXX         .....................................................................................        XXXXXXX     XX",
"XX     XXXXXX        ......................................................................................         XXXXXX     XX",
"XX     XXXXXX        .......................................................................................        XXXXXX     XX",
"XX     XXXXX         .......................................................................................        XXXXXX     XX",
"XX     XXXXX      .  .......................................................................................  .     XXXXXX     XX",
"XX     XXXXX      .............................................................................................     XXXXXX     XX",
"XX     XXXXX      .............................................................................................     XXXXXX     XX",
"XX     XXXXX      .............................................................................................      XXXXX     XX",
"XX     XXXXX      .............................................................................................      XXXXX     XX",
"XX     XXXXX      .............................................................................................      XXXXX     XX",
"XX     XXXXX     ..............................................................................................      XXXXX     XX",
"XX     XXXXX     ............................................    ..............................................      XXXXX     XX",
"XX     XXXXX     ........................................          ............................................      XXXXX     XX",
"XX     XXXXX     .......................................           ............................................      XXXXX     XX",
"XX     XXXXX     ......................................             ...........................................      XXXXX     XX",
"XX     XXXXX     .....................................              ...........................................      XXXXX     XX",
"XX     XXXXX     .....................................              ...........................................      XXXXX     XX",
"XX     XXXXX      ....................................              ...........................................      XXXXX     XX",
"XX     XXXXX      ...................................                ..........................................      XXXXX     XX",
"XX     XXXXX      ...................................                ..........................................      XXXXX     XX",
"XX     XXXXX      ..................................                 ..........................................      XXXXX     XX",
"XX     XXXXX      ..................................                 ..........................................     XXXXXX     XX",
"XX     XXXXX      ..................................                ...........................................     XXXXXX     XX",
"XX     XXXXX         ..............................                 ........................................        XXXXXX     XX",
"XX     XXXXXX        ..............................                .........................................        XXXXXX     XX",
"XX     XXXXXX        .............................                .........................................         XXXXXX     XX",
"XX     XXXXXX        .............................               ..........................................        XXXXXXX     XX",
"XX     XXXXXXX        ............................              ...........................................        XXXXXXX     XX",
"XX     XXXXXXX      .............................               .............................................      XXXXXXX     XX",
"XX     XXXXXXX      .............................              ..............................................      XXXXXXX     XX",
"XX     XXXXXXX      ............................              ..............................................      XXXXXXXX     XX",
"XX     XXXXXXXX      ...........................             ...............................................      XXXXXXXX     XX",
"XX     XXXXXXXX      ...........................            ...............................................       XXXXXXXX     XX",
"XX     XXXXXXXX       .........................             ...............................................      XXXXXXXXX     XX",
"XX     XXXXXXXXX      .........................            ...............................................       XXXXXXXXX     XX",
"XX     XXXXXXXXX       .......................            ................................................      XXXXXXXXXX     XX",
"XX     XXXXXXXXXX      .......................           ................................................       XXXXXXXXXX     XX",
"XX     XXXXXXXXXX       ......................           ................................................      XXXXXXXXXXX     XX",
"XX     XXXXXXXXXXX      .....................           ................................................       XXXXXXXXXXX     XX",
"XX     XXXXXXXXXXX       ....................          .................................................      XXXXXXXXXXXX     XX",
"XX     XXXXXXXXXXXX       ..................          .................................................       XXXXXXXXXXXX     XX",
"XX     XXXXXXXXXXXX        .................         .................................................       XXXXXXXXXXXXX     XX",
"XX     XXXXXXXXXXXXX       .................         ................................................        XXXXXXXXXXXXX     XX",
"XX     XXXXXXXXXXXXXX       .. ............         ................................................        XXXXXXXXXXXXXX     XX",
"XX     XXXXXXXXXXXXXXX          ...........        ..............................................  .       XXXXXXXXXXXXXXX     XX",
"XX     XXXXXXXXXXXXXXX           .........        ..............................................          XXXXXXXXXXXXXXXX     XX",
"XX     XXXXXXXXXXXXXXXX           ........       ..............................................           XXXXXXXXXXXXXXXX     XX",
"XX     XXXXXXXXXXXXXXXXX           .......       .............................................           XXXXXXXXXXXXXXXXX     XX",
"XX     XXXXXXXXXXXXXXXXXX         ..........    ...............................................         XXXXXXXXXXXXXXXXXX     XX",
"XX     XXXXXXXXXXXXXXXXXXX        ...........  ...............................................         XXXXXXXXXXXXXXXXXXX     XX",
"XX     XXXXXXXXXXXXXXXXXXX         ..........................................................         XXXXXXXXXXXXXXXXXXXX     XX",
"XX     XXXXXXXXXXXXXXXXXXXX          .......................................................         XXXXXXXXXXXXXXXXXXXXX     XX",
"XX     XXXXXXXXXXXXXXXXXXXXXX         .....................................................         XXXXXXXXXXXXXXXXXXXXXX     XX",
"XX     XXXXXXXXXXXXXXXXXXXXXXX         ..................................................          XXXXXXXXXXXXXXXXXXXXXXX     XX",
"XX     XXXXXXXXXXXXXXXXXXXXXXXX          ..............................................           XXXXXXXXXXXXXXXXXXXXXXXX     XX",
"XX     XXXXXXXXXXXXXXXXXXXXXXXXX           ..........................................           XXXXXXXXXXXXXXXXXXXXXXXXXX     XX",
"XX     XXXXXXXXXXXXXXXXXXXXXXXXXXX           ..... ..........................  .....           XXXXXXXXXXXXXXXXXXXXXXXXXXX     XX",
"XX     XXXXXXXXXXXXXXXXXXXXXXXXXXXX            ...     ..................      ..             XXXXXXXXXXXXXXXXXXXXXXXXXXXX     XX",
"XX     XXXXXXXXXXXXXXXXXXXXXXXXXXXXX                   ..................                   XXXXXXXXXXXXXXXXXXXXXXXXXXXXXX     XX",
"XX     XXXXXXXXXXXXXXXXXXXXXXXXXXXXXXX                 ...................                XXXXXXXXXXXXXXXXXXXXXXXXXXXXXXXX     XX",
"XX     XXXXXXXXXXXXXXXXXXXXXXXXXXXXXXXXX                     .......                    XXXXXXXXXXXXXXXXXXXXXXXXXXXXXXXXXX     XX",
"XX     XXXXXXXXXXXXXXXXXXXXXXXXXXXXXXXXXXX                                             XXXXXXXXXXXXXXXXXXXXXXXXXXXXXXXXXXX     XX",
"XX     XXXXXXXXXXXXXXXXXXXXXXXXXXXXXXXXXXXXX                                         XXXXXXXXXXXXXXXXXXXXXXXXXXXXXXXXXXXXX     XX",
"XX     XXXXXXXXXXXXXXXXXXXXXXXXXXXXXXXXXXXXXXXX                                  XXXXXXXXXXXXXXXXXXXXXXXXXXXXXXXXXXXXXXXXX     XX",
"XX     XXXXXXXXXXXXXXXXXXXXXXXXXXXXXXXXXXXXXXXXXXXX                           XXXXXXXXXXXXXXXXXXXXXXXXXXXXXXXXXXXXXXXXXXXX     XX",
"XX     XXXXXXXXXXXXXXXXXXXXXXXXXXXXXXXXXXXXXXXXXXXXXXX                     XXXXXXXXXXXXXXXXXXXXXXXXXXXXXXXXXXXXXXXXXXXXXXX     XX",
"XX     XXXXXXXXXXXXXXXXXXXXXXXXXXXXXXXXXXXXXXXXXXXXXXXXXXXXXXXXXXXXXXXXXXXXXXXXXXXXXXXXXXXXXXXXXXXXXXXXXXXXXXXXXXXXXXXXXXX     XX",
"XX     XXXXXXXXXXXXXXXXXXXXXXXXXXXXXXXXXXXXXXXXXXXXXXXXXXXXXXXXXXXXXXXXXXXXXXXXXXXXXXXXXXXXXXXXXXXXXXXXXXXXXXXXXXXXXXXXXXX     XX",
"XX     XXXXXXXXXXXXXXXXXXXXXXXXXXXXXXXXXXXXXXXXXXXXXXXXXXXXXXXXXXXXXXXXXXXXXXXXXXXXXXXXXXXXXXXXXXXXXXXXXXXXXXXXXXXXXXXXXXX     XX",
"XX     XXXXXXXXXXXXXXXXXXXXXXXXXXXXXXXXXXXXXXXXXXXXXXXXXXXXXXXXXXXXXXXXXXXXXXXXXXXXXXXXXXXXXXXXXXXXXXXXXXXXXXXXXXXXXXXXXXX     XX",
"XX     XXXXXXXXXXXXXXXXXXXXXXXXXXXXXXXXXXXXXXXXXXXXXXXXXXXXXXXXXXXXXXXXXXXXXXXXXXXXXXXXXXXXXXXXXXXXXXXXXXXXXXXXXXXXXXXXXXX     XX",
"XX                                                                                                                             XX",
"XX                                                                                                                             XX",
"XX                                                                                                                             XX",
"XX                                                                                                                             XX",
"XX                                                                                                                             XX",
"XXXXXXXXXXXXXXXXXXXXXXXXXXXXXXXXXXXXXXXXXXXXXXXXXXXXXXXXXXXXXXXXXXXXXXXXXXXXXXXXXXXXXXXXXXXXXXXXXXXXXXXXXXXXXXXXXXXXXXXXXXXXXXXXX",
"XXXXXXXXXXXXXXXXXXXXXXXXXXXXXXXXXXXXXXXXXXXXXXXXXXXXXXXXXXXXXXXXXXXXXXXXXXXXXXXXXXXXXXXXXXXXXXXXXXXXXXXXXXXXXXXXXXXXXXXXXXXXXXXXX"
};
